<svg xmlns="http://www.w3.org/2000/svg" width="75.766" height="30.662" viewBox="0 0 75.766 30.662">
  <g id="그룹_50" data-name="그룹 50" transform="translate(-374.409 -1199.78)">
    <path id="패스_199" data-name="패스 199" d="M201.329,132.049l2.094-4.013a2.833,2.833,0,0,0-.331-.021H193.88a2.8,2.8,0,0,0-2.572,1.709l4.271,2.326Z" transform="translate(183.32 1071.766)" fill="#1b1a15"/>
    <g id="그룹_49" data-name="그룹 49" transform="translate(374.409 1199.78)">
      <g id="그룹_28" data-name="그룹 28" transform="translate(0 0)">
        <g id="그룹_24" data-name="그룹 24" transform="translate(0)" opacity="0.1">
          <path id="패스_147" data-name="패스 147" d="M35.6,30.334l2.094-4.013a2.79,2.79,0,0,0-.33-.022H28.149a2.794,2.794,0,0,0-2.572,1.709l4.271,2.326Z" transform="translate(-25.358 -26.299)" fill="#1b1a15"/>
          <path id="패스_148" data-name="패스 148" d="M53.189,38.77l2.682,2.682L57.3,40.021V29.483a2.793,2.793,0,0,0-1.664-2.551l-2.45,4.7Z" transform="translate(-42.51 -26.692)" fill="#1b1a15"/>
          <path id="패스_149" data-name="패스 149" d="M29.114,70.956l-2.682-2.682L25,69.706V80.244a2.8,2.8,0,0,0,.051.523l4.063-2.212Z" transform="translate(-25 -52.373)" fill="#1b1a15"/>
          <path id="패스_150" data-name="패스 150" d="M30.509,96.588l-4.662,2.539a2.792,2.792,0,0,0,2.47,1.5h9.212c.066,0,.131-.005.2-.01l-2.1-4.024Z" transform="translate(-25.526 -69.961)" fill="#1b1a15"/>
          <path id="패스_151" data-name="패스 151" d="M55.871,68.274l-2.682,2.682v7.411l2.335,4.475a2.793,2.793,0,0,0,1.779-2.6V69.706Z" transform="translate(-42.51 -52.373)" fill="#1b1a15"/>
          <path id="패스_152" data-name="패스 152" d="M26.432,45.185,29.114,42.5V35.174l-4.1-2.233a2.736,2.736,0,0,0-.014.274V43.753Z" transform="translate(-25 -30.425)" fill="#1b1a15"/>
          <path id="패스_153" data-name="패스 153" d="M41.074,63.306l-2.112-2.112H32.4l-2.112,2.112L32.4,65.417h6.565Z" transform="translate(-28.283 -47.975)" fill="#1b1a15"/>
        </g>
        <g id="그룹_25" data-name="그룹 25" transform="translate(17.223)" opacity="0.1">
          <path id="패스_154" data-name="패스 154" d="M81.06,30.334l2.094-4.013a2.791,2.791,0,0,0-.33-.022H73.612a2.794,2.794,0,0,0-2.572,1.709l4.271,2.326Z" transform="translate(-70.821 -26.299)" fill="#1b1a15"/>
          <path id="패스_155" data-name="패스 155" d="M98.652,38.77l2.682,2.682,1.432-1.432V29.483a2.792,2.792,0,0,0-1.664-2.551l-2.45,4.7Z" transform="translate(-87.973 -26.692)" fill="#1b1a15"/>
          <path id="패스_156" data-name="패스 156" d="M74.577,70.956l-2.682-2.682-1.432,1.432V80.244a2.8,2.8,0,0,0,.051.523l4.063-2.212Z" transform="translate(-70.463 -52.373)" fill="#1b1a15"/>
          <path id="패스_157" data-name="패스 157" d="M75.972,96.588,71.31,99.127a2.792,2.792,0,0,0,2.47,1.5h9.212c.066,0,.131-.005.2-.01l-2.1-4.024Z" transform="translate(-70.989 -69.961)" fill="#1b1a15"/>
          <path id="패스_158" data-name="패스 158" d="M101.334,68.274l-2.682,2.682v7.411l2.335,4.475a2.792,2.792,0,0,0,1.779-2.6V69.706Z" transform="translate(-87.973 -52.373)" fill="#1b1a15"/>
          <path id="패스_159" data-name="패스 159" d="M71.895,45.185,74.577,42.5V35.174l-4.1-2.233a2.735,2.735,0,0,0-.014.274V43.753Z" transform="translate(-70.463 -30.425)" fill="#1b1a15"/>
          <path id="패스_160" data-name="패스 160" d="M86.537,63.306l-2.112-2.112H77.861l-2.112,2.112,2.112,2.112h6.565Z" transform="translate(-73.747 -47.975)" fill="#1b1a15"/>
        </g>
        <g id="그룹_26" data-name="그룹 26" transform="translate(43.75)" opacity="0.1">
          <path id="패스_161" data-name="패스 161" d="M151.085,30.334l2.094-4.013a2.8,2.8,0,0,0-.33-.022h-9.212a2.8,2.8,0,0,0-2.572,1.709l4.271,2.326Z" transform="translate(-140.846 -26.299)" fill="#1b1a15"/>
          <path id="패스_162" data-name="패스 162" d="M168.677,38.77l2.682,2.682,1.432-1.432V29.483a2.793,2.793,0,0,0-1.664-2.551l-2.45,4.7Z" transform="translate(-157.998 -26.692)" fill="#1b1a15"/>
          <path id="패스_163" data-name="패스 163" d="M144.6,70.956l-2.682-2.682-1.432,1.432V80.244a2.8,2.8,0,0,0,.051.523l4.063-2.212Z" transform="translate(-140.488 -52.373)" fill="#1b1a15"/>
          <path id="패스_164" data-name="패스 164" d="M146,96.588l-4.662,2.539a2.792,2.792,0,0,0,2.47,1.5h9.212c.066,0,.131-.005.2-.01l-2.1-4.024Z" transform="translate(-141.014 -69.961)" fill="#1b1a15"/>
          <path id="패스_165" data-name="패스 165" d="M171.359,68.274l-2.682,2.682v7.411l2.335,4.475a2.793,2.793,0,0,0,1.779-2.6V69.706Z" transform="translate(-157.998 -52.373)" fill="#1b1a15"/>
          <path id="패스_166" data-name="패스 166" d="M141.92,45.185,144.6,42.5V35.174l-4.1-2.233c-.009.09-.014.182-.014.274V43.753Z" transform="translate(-140.488 -30.425)" fill="#1b1a15"/>
          <path id="패스_167" data-name="패스 167" d="M156.562,63.306l-2.112-2.112h-6.565l-2.112,2.112,2.112,2.112h6.565Z" transform="translate(-143.771 -47.975)" fill="#1b1a15"/>
        </g>
        <g id="그룹_27" data-name="그룹 27" transform="translate(60.973)" opacity="0.1">
          <path id="패스_168" data-name="패스 168" d="M196.548,30.334l2.094-4.013a2.8,2.8,0,0,0-.33-.022H189.1a2.8,2.8,0,0,0-2.572,1.709l4.271,2.326Z" transform="translate(-186.309 -26.299)" fill="#1b1a15"/>
          <path id="패스_169" data-name="패스 169" d="M214.14,38.77l2.682,2.682,1.432-1.432V29.483a2.793,2.793,0,0,0-1.664-2.551l-2.45,4.7Z" transform="translate(-203.461 -26.692)" fill="#1b1a15"/>
          <path id="패스_170" data-name="패스 170" d="M190.065,70.956l-2.682-2.682-1.432,1.432V80.244a2.8,2.8,0,0,0,.051.523l4.063-2.212Z" transform="translate(-185.951 -52.373)" fill="#1b1a15"/>
          <path id="패스_171" data-name="패스 171" d="M191.46,96.588,186.8,99.127a2.792,2.792,0,0,0,2.47,1.5h9.212c.066,0,.131-.005.2-.01l-2.1-4.024Z" transform="translate(-186.477 -69.961)" fill="#1b1a15"/>
          <path id="패스_172" data-name="패스 172" d="M216.822,68.274l-2.682,2.682v7.411l2.335,4.475a2.793,2.793,0,0,0,1.779-2.6V69.706Z" transform="translate(-203.461 -52.373)" fill="#1b1a15"/>
          <path id="패스_173" data-name="패스 173" d="M187.383,45.185l2.682-2.682V35.174l-4.1-2.233c-.009.09-.014.182-.014.274V43.753Z" transform="translate(-185.951 -30.425)" fill="#1b1a15"/>
          <path id="패스_174" data-name="패스 174" d="M202.025,63.306l-2.112-2.112h-6.565l-2.112,2.112,2.112,2.112h6.565Z" transform="translate(-189.234 -47.975)" fill="#1b1a15"/>
        </g>
        <path id="패스_177" data-name="패스 177" d="M81.06,30.334l2.094-4.013a2.791,2.791,0,0,0-.33-.022H73.612a2.794,2.794,0,0,0-2.572,1.709l4.271,2.326Z" transform="translate(-53.599 -26.299)" fill="#1b1a15"/>
        <path id="패스_178" data-name="패스 178" d="M98.652,38.77l2.682,2.682,1.432-1.432V29.483a2.792,2.792,0,0,0-1.664-2.551l-2.45,4.7Z" transform="translate(-70.751 -26.692)" fill="#1b1a15"/>
        <rect id="사각형_2" data-name="사각형 2" width="4.114" height="4.114" transform="translate(35.877 9.325)" fill="#1b1a15"/>
        <rect id="사각형_3" data-name="사각형 3" width="4.114" height="4.114" transform="translate(35.877 17.3)" fill="#1b1a15"/>
        <path id="패스_179" data-name="패스 179" d="M75.972,96.588,71.31,99.127a2.792,2.792,0,0,0,2.47,1.5h9.212c.066,0,.131-.005.2-.01l-2.1-4.024Z" transform="translate(-53.766 -69.961)" fill="#1b1a15"/>
        <path id="패스_181" data-name="패스 181" d="M86.537,63.306l-2.112-2.112H77.861l-2.112,2.112,2.112,2.112h6.565Z" transform="translate(-56.524 -47.975)" fill="#1b1a15"/>
        <path id="패스_182" data-name="패스 182" d="M151.085,30.334l2.094-4.013a2.8,2.8,0,0,0-.33-.022h-9.212a2.8,2.8,0,0,0-2.572,1.709l4.271,2.326Z" transform="translate(-97.096 -26.299)" fill="#1b1a15"/>
        <path id="패스_183" data-name="패스 183" d="M168.677,38.77l2.682,2.682,1.432-1.432V29.483a2.793,2.793,0,0,0-1.664-2.551l-2.45,4.7Z" transform="translate(-114.248 -26.692)" fill="#1b1a15"/>
        <path id="패스_184" data-name="패스 184" d="M144.6,70.956l-2.682-2.682-1.432,1.432V80.244a2.8,2.8,0,0,0,.051.523l4.063-2.212Z" transform="translate(-96.738 -52.373)" fill="#1b1a15"/>
        <path id="패스_185" data-name="패스 185" d="M146,96.588l-4.662,2.539a2.792,2.792,0,0,0,2.47,1.5h9.212c.066,0,.131-.005.2-.01l-2.1-4.024Z" transform="translate(-97.264 -69.961)" fill="#1b1a15"/>
        <path id="패스_187" data-name="패스 187" d="M196.548,30.334l2.094-4.013a2.8,2.8,0,0,0-.33-.022H189.1a2.8,2.8,0,0,0-2.572,1.709l4.271,2.326Z" transform="translate(-125.336 -26.299)" fill="#1b1a15"/>
        <path id="패스_188" data-name="패스 188" d="M214.14,38.77l2.682,2.682,1.432-1.432V29.483a2.793,2.793,0,0,0-1.664-2.551l-2.45,4.7Z" transform="translate(-142.488 -26.692)" fill="#1b1a15"/>
        <path id="패스_189" data-name="패스 189" d="M191.46,96.588,186.8,99.127a2.792,2.792,0,0,0,2.47,1.5h9.212c.066,0,.131-.005.2-.01l-2.1-4.024Z" transform="translate(-125.504 -69.961)" fill="#1b1a15"/>
        <path id="패스_190" data-name="패스 190" d="M216.822,68.274l-2.682,2.682v7.411l2.335,4.475a2.793,2.793,0,0,0,1.779-2.6V69.706Z" transform="translate(-142.488 -52.373)" fill="#1b1a15"/>
        <path id="패스_205" data-name="패스 205" d="M144.6,70.956l-2.682-2.682-1.432,1.432V80.244a2.8,2.8,0,0,0,.051.523l4.063-2.212Z" transform="translate(-123.265 -52.373)" fill="#1b1a15"/>
        <path id="패스_207" data-name="패스 207" d="M216.822,68.274l-2.682,2.682v7.411l2.335,4.475a2.793,2.793,0,0,0,1.779-2.6V69.706Z" transform="translate(-159.711 -52.373)" fill="#1b1a15"/>
        <path id="패스_208" data-name="패스 208" d="M144.6,70.956l-2.682-2.682-1.432,1.432V80.244a2.8,2.8,0,0,0,.051.523l4.063-2.212Z" transform="translate(-79.515 -52.373)" fill="#1b1a15"/>
      </g>
      <path id="패스_200" data-name="패스 200" d="M216.745,140.436l2.682,2.682,1.432-1.432V131.148A2.793,2.793,0,0,0,219.2,128.6l-2.45,4.7Z" transform="translate(-206.066 -128.357)" fill="#1b1a15"/>
      <path id="패스_201" data-name="패스 201" d="M194.891,169.365l-2.682-2.682-1.432,1.432v10.538a2.778,2.778,0,0,0,.051.523l4.063-2.213Z" transform="translate(-190.777 -150.781)" fill="#1b1a15"/>
      <path id="패스_202" data-name="패스 202" d="M196.219,192.766l-4.662,2.539a2.792,2.792,0,0,0,2.47,1.5h9.212c.066,0,.131-.005.2-.01l-2.1-4.024Z" transform="translate(-191.236 -166.139)" fill="#1b1a15"/>
      <path id="패스_203" data-name="패스 203" d="M219.427,166.683l-2.682,2.682v7.411l2.335,4.475a2.792,2.792,0,0,0,1.779-2.6V168.115Z" transform="translate(-206.066 -150.781)" fill="#1b1a15"/>
      <path id="패스_204" data-name="패스 204" d="M192.209,146.377l2.682-2.682v-7.329l-4.1-2.233c-.009.09-.014.182-.014.274v10.538Z" transform="translate(-190.777 -131.617)" fill="#1b1a15"/>
      <path id="패스_206" data-name="패스 206" d="M192.236,146.377l2.733-2.682v-7.329l-4.178-2.233a2.7,2.7,0,0,0-.014.274v10.538Z" transform="translate(-147.024 -131.617)" fill="#1b1a15"/>
      <path id="패스_209" data-name="패스 209" d="M192.236,146.377l2.733-2.682v-7.329l-4.178-2.233a2.7,2.7,0,0,0-.014.274v10.538Z" transform="translate(-129.851 -131.617)" fill="#1b1a15"/>
    </g>
  </g>
</svg>
