<svg xmlns="http://www.w3.org/2000/svg" xmlns:xlink="http://www.w3.org/1999/xlink" width="324.649" height="448.287" viewBox="0 0 324.649 448.287">
  <defs>
    <clipPath id="clip-path">
      <path id="패스_121" data-name="패스 121" d="M1126.5,705.381,1087.6,703l-12.841-36.391-4.8,35.308-2.135-.125-62.909,10.089-25.219-2.1-8.819-41.187-7.241,39.856L926.925,705.4s1.424-6.08,7.055-29.319c5.632-23.254,15.3-34.766,15.3-34.766A80.98,80.98,0,0,1,973.7,619.295a75.692,75.692,0,0,1,26.348-9.346c8.417-1.314,17.329-1.36,28.05-1.083,8.788.218,17.561.14,26.319,1.733,13.089,2.367,26.116,8.464,39.082,24.817C1115.126,662.725,1126.5,705.381,1126.5,705.381Z" transform="translate(-926.925 -608.729)" fill="none"/>
    </clipPath>
  </defs>
  <g id="그룹_29" data-name="그룹 29" transform="translate(240.487)">
    <path id="패스_192" data-name="패스 192" d="M3618.463,1474.327l-13.9-13.9,12.624-12.624-12.624-12.624,12.623-12.624-12.623-12.624,13.9-13.9,2.551,2.55-11.348,11.349,12.624,12.624-12.624,12.624,12.623,12.624-12.623,12.624,11.348,11.349Z" transform="translate(-3604.564 -1396.036)" fill="#ff8d8d"/>
    <path id="패스_193" data-name="패스 193" d="M3704.963,1631.557l-13.9-13.9,12.624-12.624-12.624-12.624,12.624-12.624-12.624-12.624,13.9-13.9,2.551,2.55-11.349,11.348,12.624,12.624-12.624,12.624,12.624,12.624-12.624,12.624,11.349,11.348Z" transform="translate(-3675.466 -1524.912)" fill="#81c9be"/>
  </g>
  <g id="그룹_30" data-name="그룹 30" transform="translate(34.173 39.067)">
    <ellipse id="타원_8" data-name="타원 8" cx="10.966" cy="10.966" rx="10.966" ry="10.966" fill="#ff8d8d"/>
    <path id="패스_194" data-name="패스 194" d="M2899.45,2932.862a13.075,13.075,0,1,1,13.076-13.076A13.091,13.091,0,0,1,2899.45,2932.862Zm0-21.932a8.857,8.857,0,1,0,8.857,8.856A8.867,8.867,0,0,0,2899.45,2910.93Z" transform="translate(-2843.289 -2865.285)" fill="#ff8d8d"/>
  </g>
  <ellipse id="타원_9" data-name="타원 9" cx="16.598" cy="16.598" rx="16.598" ry="16.598" transform="translate(52.194 137.884)" fill="#81c9be"/>
  <g id="그룹_31" data-name="그룹 31" transform="translate(222.97 137.884)">
    <path id="패스_195" data-name="패스 195" d="M902.316,2939.151a50.839,50.839,0,0,1,101.679,0Z" transform="translate(-902.316 -2873.485)" fill="#ff8d8d"/>
    <path id="패스_196" data-name="패스 196" d="M1555.682,2804.555l-1.746-1.746,7.771-7.771-8.644-8.644,8.644-8.644-7.771-7.77,1.746-1.747,9.517,9.517-8.644,8.644,8.644,8.644Z" transform="translate(-1472.712 -2768.234)" fill="#4564d6"/>
  </g>
  <g id="그룹_20" data-name="그룹 20" transform="translate(85.649 121.746)">
    <path id="패스_120" data-name="패스 120" d="M1126.5,705.381,1087.6,703l-12.841-36.391-4.8,35.308-2.135-.125-62.909,10.089-25.219-2.1-8.819-41.187-7.241,39.856L926.925,705.4s1.424-6.08,7.055-29.319c5.632-23.254,15.3-34.766,15.3-34.766A80.98,80.98,0,0,1,973.7,619.295a75.692,75.692,0,0,1,26.348-9.346c8.417-1.314,17.329-1.36,28.05-1.083,8.788.218,17.561.14,26.319,1.733,13.089,2.367,26.116,8.464,39.082,24.817C1115.126,662.725,1126.5,705.381,1126.5,705.381Z" transform="translate(-926.892 -561.757)" fill="#81c9be"/>
    <g id="그룹_17" data-name="그룹 17" transform="translate(0.033 46.972)">
      <g id="그룹_16" data-name="그룹 16" clip-path="url(#clip-path)">
        <g id="그룹_15" data-name="그룹 15" transform="translate(0 -44.35)">
          <line id="선_13" data-name="선 13" y2="145.436" transform="translate(34.554)" fill="none" stroke="#9ad4cb" stroke-miterlimit="10" stroke-width="1"/>
          <line id="선_14" data-name="선 14" y2="145.436" transform="translate(50.026)" fill="none" stroke="#9ad4cb" stroke-miterlimit="10" stroke-width="1"/>
          <line id="선_15" data-name="선 15" y2="145.436" transform="translate(65.498)" fill="none" stroke="#9ad4cb" stroke-miterlimit="10" stroke-width="1"/>
          <line id="선_16" data-name="선 16" y2="145.436" transform="translate(80.97)" fill="none" stroke="#9ad4cb" stroke-miterlimit="10" stroke-width="1"/>
          <line id="선_17" data-name="선 17" y2="145.436" transform="translate(96.442)" fill="none" stroke="#9ad4cb" stroke-miterlimit="10" stroke-width="1"/>
          <line id="선_18" data-name="선 18" y2="145.436" transform="translate(111.914)" fill="none" stroke="#9ad4cb" stroke-miterlimit="10" stroke-width="1"/>
          <line id="선_19" data-name="선 19" y2="145.436" transform="translate(127.386)" fill="none" stroke="#9ad4cb" stroke-miterlimit="10" stroke-width="1"/>
          <line id="선_20" data-name="선 20" y2="145.436" transform="translate(142.858)" fill="none" stroke="#9ad4cb" stroke-miterlimit="10" stroke-width="1"/>
          <line id="선_21" data-name="선 21" y2="145.436" transform="translate(158.33)" fill="none" stroke="#9ad4cb" stroke-miterlimit="10" stroke-width="1"/>
          <line id="선_22" data-name="선 22" y2="145.436" transform="translate(173.802)" fill="none" stroke="#9ad4cb" stroke-miterlimit="10" stroke-width="1"/>
          <line id="선_23" data-name="선 23" y2="145.436" transform="translate(189.274)" fill="none" stroke="#9ad4cb" stroke-miterlimit="10" stroke-width="1"/>
          <line id="선_24" data-name="선 24" y2="145.436" transform="translate(204.746)" fill="none" stroke="#9ad4cb" stroke-miterlimit="10" stroke-width="1"/>
          <line id="선_25" data-name="선 25" y2="145.436" transform="translate(220.217)" fill="none" stroke="#9ad4cb" stroke-miterlimit="10" stroke-width="1"/>
          <line id="선_26" data-name="선 26" x2="251.677" transform="translate(0 42.806)" fill="none" stroke="#9ad4cb" stroke-miterlimit="10" stroke-width="1"/>
          <line id="선_27" data-name="선 27" x2="251.677" transform="translate(0 57.762)" fill="none" stroke="#9ad4cb" stroke-miterlimit="10" stroke-width="1"/>
          <line id="선_28" data-name="선 28" x2="251.677" transform="translate(0 72.718)" fill="none" stroke="#9ad4cb" stroke-miterlimit="10" stroke-width="1"/>
          <line id="선_29" data-name="선 29" x2="251.677" transform="translate(0 87.674)" fill="none" stroke="#9ad4cb" stroke-miterlimit="10" stroke-width="1"/>
          <line id="선_30" data-name="선 30" x2="251.677" transform="translate(0 102.631)" fill="none" stroke="#9ad4cb" stroke-miterlimit="10" stroke-width="1"/>
          <line id="선_31" data-name="선 31" x2="251.677" transform="translate(0 117.587)" fill="none" stroke="#9ad4cb" stroke-miterlimit="10" stroke-width="1"/>
          <line id="선_32" data-name="선 32" x2="251.677" transform="translate(0 132.543)" fill="none" stroke="#9ad4cb" stroke-miterlimit="10" stroke-width="1"/>
          <line id="선_33" data-name="선 33" x2="251.677" transform="translate(0 147.499)" fill="none" stroke="#9ad4cb" stroke-miterlimit="10" stroke-width="1"/>
        </g>
      </g>
    </g>
    <path id="패스_122" data-name="패스 122" d="M951.051,684.1s6.938-28.3,10.5-37.428l-3.042,44.294Z" transform="translate(-917.565 -547.088)" fill="#72b7ac"/>
    <path id="패스_123" data-name="패스 123" d="M972.1,662.249s5.768.912,6.362,3.58a13.6,13.6,0,0,1,0,5.287Z" transform="translate(-909.428 -541.068)" fill="#efa2a0"/>
    <path id="패스_124" data-name="패스 124" d="M994.151,686.663l1.451,7.086-6.738-2.63-37.813-44.867,5.287-4.456Z" transform="translate(-917.565 -548.975)" fill="#29283d"/>
    <path id="패스_125" data-name="패스 125" d="M964.953,673.114l-9.487-4.743s-18.383-3.855-25.795,7.708,1.779,17.2,7.411,18.975,27.87,2.669,27.87,2.669,24.708,1.779,23.324-8.6c0,0,4.843.4,4.744-4.151l-.4-2.177s1.779-3.654,1.087-6.026l-.692-2.371a4.933,4.933,0,0,0-.2-4.745c-1.482-2.469-5.732-8.992-7.413-8.992s-17.393.3-17.888,3.161S964.953,673.114,964.953,673.114Z" transform="translate(-926.901 -541.681)" fill="#efa2a0"/>
    <line id="선_34" data-name="선 34" x1="2.471" y2="11.563" transform="translate(35.581 131.433)" fill="none" stroke="#e27171" stroke-linecap="round" stroke-linejoin="round" stroke-width="1"/>
    <path id="패스_126" data-name="패스 126" d="M979.545,672.057s-6.424-5.337-7.806-5.337h-9.982" transform="translate(-913.426 -539.339)" fill="none" stroke="#e27171" stroke-linecap="round" stroke-linejoin="round" stroke-width="1"/>
    <path id="패스_127" data-name="패스 127" d="M979.15,677.768s-5.831-3.457-7.61-3.9-9.784,0-9.784,0" transform="translate(-913.426 -536.653)" fill="none" stroke="#e27171" stroke-linecap="round" stroke-linejoin="round" stroke-width="1"/>
    <path id="패스_128" data-name="패스 128" d="M1046.367,676.575s-10.453-34.346-12.529-31.975,5.455,33.826,5.455,33.826Z" transform="translate(-885.701 -547.936)" fill="#72b7ac"/>
    <path id="패스_129" data-name="패스 129" d="M974.8,681.933a16.37,16.37,0,0,0-5.237-1.977c-2.866-.494-7.808-.692-7.808-.692" transform="translate(-913.426 -534.49)" fill="none" stroke="#e27171" stroke-linecap="round" stroke-linejoin="round" stroke-width="1"/>
    <path id="패스_130" data-name="패스 130" d="M1063.145,666.337l-53.071,17.379s-22.9,2.076-30.126,8.6-16.693,12.156-6.625,11.861,21.334.011,21.334.011,13.046,1.289,25.2-3.866c0,0,53.664,7.051,78.273-3.443s6.523-31.543-8-33.322A64.363,64.363,0,0,0,1063.145,666.337Z" transform="translate(-910.649 -540.722)" fill="#efa2a0"/>
    <g id="그룹_19" data-name="그룹 19" transform="translate(62.165)">
      <path id="패스_131" data-name="패스 131" d="M1034.028,610.6a28.043,28.043,0,0,1-54.369-.65c8.417-1.314,17.329-1.36,28.051-1.083C1016.5,609.084,1025.271,609.006,1034.028,610.6Z" transform="translate(-968.67 -561.758)" fill="#72b7ac"/>
      <path id="패스_132" data-name="패스 132" d="M975.58,605.351s-.306-37.328,34.12-28.453c0,0,2.561-3.286,10.375-1.527s17.22,9.153,18.225,31.252l-63.288,7.9Z" transform="translate(-970.467 -574.853)" fill="#231b3e"/>
      <ellipse id="타원_6" data-name="타원 6" cx="28.039" cy="28.039" rx="28.039" ry="28.039" transform="translate(10.216 9.623)" fill="#efa2a0"/>
      <path id="패스_133" data-name="패스 133" d="M1005.233,582.5S1004.107,596.742,1011,599s12.094,9.236,12.094,9.236l2.334-7.3-17.661-21.373Z" transform="translate(-958.81 -573.029)" fill="#231b3e"/>
      <ellipse id="타원_7" data-name="타원 7" cx="9.201" cy="9.201" rx="9.201" ry="9.201" transform="translate(56.031 30.198)" fill="#efa2a0"/>
      <path id="패스_134" data-name="패스 134" d="M990.673,605.908a9.47,9.47,0,1,1-9.47-9.469A9.469,9.469,0,0,1,990.673,605.908Z" transform="translate(-971.734 -566.509)" fill="#efa2a0"/>
      <path id="패스_135" data-name="패스 135" d="M976.187,600.925s-1.385,5.413,3.367,6.5" transform="translate(-970.085 -564.774)" fill="none" stroke="#231b3e" stroke-linecap="round" stroke-linejoin="round" stroke-width="1"/>
      <path id="패스_136" data-name="패스 136" d="M1023.047,600.991s1.345,5.261-3.272,6.312" transform="translate(-953.162 -564.749)" fill="none" stroke="#231b3e" stroke-linecap="round" stroke-linejoin="round" stroke-width="1"/>
      <path id="패스_137" data-name="패스 137" d="M998.633,608.907h0s-.559,4.19,1.956,4.889" transform="translate(-961.356 -561.689)" fill="none" stroke="#231b3e" stroke-linecap="round" stroke-linejoin="round" stroke-width="1"/>
      <path id="패스_138" data-name="패스 138" d="M1007.485,606.162a1.276,1.276,0,1,1-1.276-1.276A1.276,1.276,0,0,1,1007.485,606.162Z" transform="translate(-958.899 -563.243)" fill="#231b3e" stroke="#231b3e" stroke-miterlimit="10" stroke-width="1"/>
      <path id="패스_139" data-name="패스 139" d="M993.985,606.162a1.276,1.276,0,1,1-1.277-1.276A1.276,1.276,0,0,1,993.985,606.162Z" transform="translate(-964.119 -563.243)" fill="#231b3e" stroke="#231b3e" stroke-miterlimit="10" stroke-width="1"/>
      <path id="패스_140" data-name="패스 140" d="M977.991,602.166s.067,7.146,8.672,3.716,6.6-12.443,15.684-10.487,18.206-7.031,18.206-7.031l-2.285-8.792h-18.5l-18.776,9.333Z" transform="translate(-969.315 -573.029)" fill="#231b3e"/>
      <g id="그룹_18" data-name="그룹 18" transform="translate(12.122 25.321)">
        <path id="패스_141" data-name="패스 141" d="M1000.535,607.284c0,4.07-2.087,7.542-7.368,7.542a7.518,7.518,0,0,1-7.368-7.542c0-4.068,3.3-5.1,7.368-5.1S1000.535,603.216,1000.535,607.284Z" transform="translate(-978.419 -589.611)" fill="none" stroke="#231b3e" stroke-linecap="round" stroke-linejoin="round" stroke-width="0.75"/>
        <path id="패스_142" data-name="패스 142" d="M1001.034,607.284c0,4.07,2.087,7.542,7.368,7.542a7.518,7.518,0,0,0,7.368-7.542c0-4.068-3.3-5.1-7.368-5.1S1001.034,603.216,1001.034,607.284Z" transform="translate(-972.529 -589.611)" fill="none" stroke="#231b3e" stroke-linecap="round" stroke-linejoin="round" stroke-width="0.75"/>
        <path id="패스_143" data-name="패스 143" d="M995.556,603.621s3.34-1.4,8.784.021" transform="translate(-974.646 -589.292)" fill="none" stroke="#231b3e" stroke-linecap="round" stroke-linejoin="round" stroke-width="0.75"/>
        <path id="패스_144" data-name="패스 144" d="M1010.837,607.513s3.146.562,3.7-1.829,4.655-12.569,4.655-12.569" transform="translate(-968.739 -593.115)" fill="none" stroke="#231b3e" stroke-linecap="round" stroke-linejoin="round" stroke-width="0.75"/>
        <path id="패스_145" data-name="패스 145" d="M988.829,607.513s-3.146.562-3.7-1.829-4.655-12.569-4.655-12.569" transform="translate(-980.476 -593.115)" fill="none" stroke="#231b3e" stroke-linecap="round" stroke-linejoin="round" stroke-width="0.75"/>
      </g>
      <path id="패스_146" data-name="패스 146" d="M1006.285,613.811s-10.871,3.322-7.775,4.231S1006.283,617.478,1006.285,613.811Z" transform="translate(-961.597 -559.793)" fill="#e27171"/>
    </g>
  </g>
  <path id="패스_197" data-name="패스 197" d="M768.1,287.046Z" transform="translate(-739.039 -45.827)" fill="#f7e941"/>
  <path id="패스_198" data-name="패스 198" d="M763.286,287.462a52.195,52.195,0,0,1-52.194-52.194h4.027a48.222,48.222,0,0,0,48.167,48.167Z" transform="translate(-711.092 -46.244)" fill="#4564d6"/>
  <g id="그룹_50" data-name="그룹 50" transform="translate(-345.351 -919.115)">
    <path id="패스_199" data-name="패스 199" d="M230.4,143.754l8.169-15.657a11.044,11.044,0,0,0-1.29-.083H201.343a10.9,10.9,0,0,0-10.035,6.666l16.663,9.074Z" transform="translate(183.953 1071.766)" fill="#1b1a15"/>
    <g id="그룹_49" data-name="그룹 49">
      <g id="그룹_28" data-name="그룹 28" transform="translate(374.409 1199.78)">
        <g id="그룹_24" data-name="그룹 24" transform="translate(0 0)" opacity="0.1">
          <path id="패스_147" data-name="패스 147" d="M64.67,42.039l8.169-15.656A10.888,10.888,0,0,0,71.55,26.3H35.611a10.9,10.9,0,0,0-10.034,6.667l16.661,9.073Z" transform="translate(-24.724 -26.299)" fill="#1b1a15"/>
          <path id="패스_148" data-name="패스 148" d="M53.189,73.118,63.653,83.582,69.24,78V36.883a10.9,10.9,0,0,0-6.491-9.951L53.189,45.254Z" transform="translate(-11.527 -25.996)" fill="#1b1a15"/>
          <path id="패스_149" data-name="패스 149" d="M41.051,78.739,30.587,68.274,25,73.861v41.112a10.91,10.91,0,0,0,.2,2.041l15.853-8.631Z" transform="translate(-25 -6.237)" fill="#1b1a15"/>
          <path id="패스_150" data-name="패스 150" d="M44.036,96.588l-18.189,9.9a10.891,10.891,0,0,0,9.635,5.835H71.421c.259,0,.511-.021.766-.038l-8.192-15.7Z" transform="translate(-24.595 7.296)" fill="#1b1a15"/>
          <path id="패스_151" data-name="패스 151" d="M63.653,68.274,53.189,78.739v28.912L62.3,125.109a10.9,10.9,0,0,0,6.942-10.136V73.861Z" transform="translate(-11.527 -6.237)" fill="#1b1a15"/>
          <path id="패스_152" data-name="패스 152" d="M30.587,80.71,41.051,70.246V41.652l-16-8.711A10.672,10.672,0,0,0,25,34.011V75.123Z" transform="translate(-25 -23.124)" fill="#1b1a15"/>
          <path id="패스_153" data-name="패스 153" d="M72.374,69.433l-8.239-8.239H38.524l-8.238,8.239,8.238,8.238H64.136Z" transform="translate(-22.474 -9.621)" fill="#1b1a15"/>
        </g>
        <g id="그룹_25" data-name="그룹 25" transform="translate(67.192 0)" opacity="0.1">
          <path id="패스_154" data-name="패스 154" d="M110.133,42.039,118.3,26.383a10.888,10.888,0,0,0-1.289-.084H81.074A10.9,10.9,0,0,0,71.04,32.966L87.7,42.039Z" transform="translate(-70.187 -26.299)" fill="#1b1a15"/>
          <path id="패스_155" data-name="패스 155" d="M98.652,73.118l10.464,10.464L114.7,78V36.883a10.9,10.9,0,0,0-6.491-9.951L98.652,45.254Z" transform="translate(-56.99 -25.996)" fill="#1b1a15"/>
          <path id="패스_156" data-name="패스 156" d="M86.514,78.739,76.05,68.274l-5.587,5.587v41.112a10.909,10.909,0,0,0,.2,2.041l15.853-8.631Z" transform="translate(-70.463 -6.237)" fill="#1b1a15"/>
          <path id="패스_157" data-name="패스 157" d="M89.5,96.588l-18.189,9.9a10.893,10.893,0,0,0,9.635,5.835h35.939c.259,0,.511-.021.766-.038l-8.192-15.7Z" transform="translate(-70.058 7.296)" fill="#1b1a15"/>
          <path id="패스_158" data-name="패스 158" d="M109.116,68.274,98.652,78.739v28.912l9.109,17.458a10.894,10.894,0,0,0,6.942-10.136V73.861Z" transform="translate(-56.99 -6.237)" fill="#1b1a15"/>
          <path id="패스_159" data-name="패스 159" d="M76.05,80.71,86.514,70.246V41.652l-16-8.711a10.67,10.67,0,0,0-.055,1.07V75.123Z" transform="translate(-70.463 -23.124)" fill="#1b1a15"/>
          <path id="패스_160" data-name="패스 160" d="M117.837,69.433,109.6,61.194H83.988l-8.239,8.239,8.239,8.238H109.6Z" transform="translate(-67.937 -9.621)" fill="#1b1a15"/>
        </g>
        <g id="그룹_26" data-name="그룹 26" transform="translate(170.686 0)" opacity="0.1">
          <path id="패스_161" data-name="패스 161" d="M180.159,42.039l8.169-15.656a10.929,10.929,0,0,0-1.289-.084H151.1a10.9,10.9,0,0,0-10.035,6.667l16.662,9.073Z" transform="translate(-140.213 -26.299)" fill="#1b1a15"/>
          <path id="패스_162" data-name="패스 162" d="M168.677,73.118l10.464,10.464L184.728,78V36.883a10.9,10.9,0,0,0-6.491-9.951l-9.559,18.322Z" transform="translate(-127.015 -25.996)" fill="#1b1a15"/>
          <path id="패스_163" data-name="패스 163" d="M156.539,78.739,146.075,68.274l-5.587,5.587v41.112a10.91,10.91,0,0,0,.2,2.041l15.853-8.631Z" transform="translate(-140.488 -6.237)" fill="#1b1a15"/>
          <path id="패스_164" data-name="패스 164" d="M159.524,96.588l-18.189,9.9a10.891,10.891,0,0,0,9.635,5.835h35.939c.257,0,.51-.021.764-.038l-8.192-15.7Z" transform="translate(-140.083 7.296)" fill="#1b1a15"/>
          <path id="패스_165" data-name="패스 165" d="M179.141,68.274,168.677,78.739v28.912l9.109,17.458a10.9,10.9,0,0,0,6.942-10.136V73.861Z" transform="translate(-127.015 -6.237)" fill="#1b1a15"/>
          <path id="패스_166" data-name="패스 166" d="M146.075,80.71l10.464-10.464V41.652l-16-8.711c-.034.352-.053.709-.053,1.07V75.123Z" transform="translate(-140.488 -23.124)" fill="#1b1a15"/>
          <path id="패스_167" data-name="패스 167" d="M187.862,69.433l-8.239-8.239H154.012l-8.238,8.239,8.238,8.238h25.611Z" transform="translate(-137.962 -9.621)" fill="#1b1a15"/>
        </g>
        <g id="그룹_27" data-name="그룹 27" transform="translate(237.878 0)" opacity="0.1">
          <path id="패스_168" data-name="패스 168" d="M225.622,42.039l8.169-15.656A10.907,10.907,0,0,0,232.5,26.3H196.562a10.9,10.9,0,0,0-10.035,6.667l16.662,9.073Z" transform="translate(-185.676 -26.299)" fill="#1b1a15"/>
          <path id="패스_169" data-name="패스 169" d="M214.14,73.118,224.6,83.582,230.191,78V36.883a10.9,10.9,0,0,0-6.491-9.951L214.14,45.254Z" transform="translate(-172.478 -25.996)" fill="#1b1a15"/>
          <path id="패스_170" data-name="패스 170" d="M202,78.739,191.538,68.274l-5.587,5.587v41.112a10.906,10.906,0,0,0,.2,2.041L202,108.383Z" transform="translate(-185.951 -6.237)" fill="#1b1a15"/>
          <path id="패스_171" data-name="패스 171" d="M204.987,96.588l-18.189,9.9a10.891,10.891,0,0,0,9.635,5.835h35.939c.259,0,.511-.021.764-.038l-8.191-15.7Z" transform="translate(-185.546 7.296)" fill="#1b1a15"/>
          <path id="패스_172" data-name="패스 172" d="M224.6,68.274,214.14,78.739v28.912l9.109,17.458a10.9,10.9,0,0,0,6.942-10.136V73.861Z" transform="translate(-172.478 -6.237)" fill="#1b1a15"/>
          <path id="패스_173" data-name="패스 173" d="M191.538,80.71,202,70.246V41.652l-16-8.711c-.034.352-.053.709-.053,1.07V75.123Z" transform="translate(-185.951 -23.124)" fill="#1b1a15"/>
          <path id="패스_174" data-name="패스 174" d="M233.325,69.433l-8.239-8.239H199.475l-8.239,8.239,8.239,8.238h25.611Z" transform="translate(-183.425 -9.621)" fill="#1b1a15"/>
        </g>
        <path id="패스_177" data-name="패스 177" d="M110.133,42.039,118.3,26.383a10.888,10.888,0,0,0-1.289-.084H81.074A10.9,10.9,0,0,0,71.04,32.966L87.7,42.039Z" transform="translate(-2.995 -26.299)" fill="#1b1a15"/>
        <path id="패스_178" data-name="패스 178" d="M98.652,73.118l10.464,10.464L114.7,78V36.883a10.9,10.9,0,0,0-6.491-9.951L98.652,45.254Z" transform="translate(10.202 -25.996)" fill="#1b1a15"/>
        <rect id="사각형_2" data-name="사각형 2" width="16.051" height="16.05" transform="translate(139.969 36.378)" fill="#1b1a15"/>
        <rect id="사각형_3" data-name="사각형 3" width="16.051" height="16.05" transform="translate(139.969 67.493)" fill="#1b1a15"/>
        <path id="패스_179" data-name="패스 179" d="M89.5,96.588l-18.189,9.9a10.893,10.893,0,0,0,9.635,5.835h35.939c.259,0,.511-.021.766-.038l-8.192-15.7Z" transform="translate(-2.866 7.296)" fill="#1b1a15"/>
        <path id="패스_181" data-name="패스 181" d="M117.837,69.433,109.6,61.194H83.988l-8.239,8.239,8.239,8.238H109.6Z" transform="translate(-0.744 -9.621)" fill="#1b1a15"/>
        <path id="패스_182" data-name="패스 182" d="M180.159,42.039l8.169-15.656a10.929,10.929,0,0,0-1.289-.084H151.1a10.9,10.9,0,0,0-10.035,6.667l16.662,9.073Z" transform="translate(30.473 -26.299)" fill="#1b1a15"/>
        <path id="패스_183" data-name="패스 183" d="M168.677,73.118l10.464,10.464L184.728,78V36.883a10.9,10.9,0,0,0-6.491-9.951l-9.559,18.322Z" transform="translate(43.671 -25.996)" fill="#1b1a15"/>
        <path id="패스_184" data-name="패스 184" d="M156.539,78.739,146.075,68.274l-5.587,5.587v41.112a10.91,10.91,0,0,0,.2,2.041l15.853-8.631Z" transform="translate(30.198 -6.237)" fill="#1b1a15"/>
        <path id="패스_185" data-name="패스 185" d="M159.524,96.588l-18.189,9.9a10.891,10.891,0,0,0,9.635,5.835h35.939c.257,0,.51-.021.764-.038l-8.192-15.7Z" transform="translate(30.603 7.296)" fill="#1b1a15"/>
        <path id="패스_187" data-name="패스 187" d="M225.622,42.039l8.169-15.656A10.907,10.907,0,0,0,232.5,26.3H196.562a10.9,10.9,0,0,0-10.035,6.667l16.662,9.073Z" transform="translate(52.202 -26.299)" fill="#1b1a15"/>
        <path id="패스_188" data-name="패스 188" d="M214.14,73.118,224.6,83.582,230.191,78V36.883a10.9,10.9,0,0,0-6.491-9.951L214.14,45.254Z" transform="translate(65.4 -25.996)" fill="#1b1a15"/>
        <path id="패스_189" data-name="패스 189" d="M204.987,96.588l-18.189,9.9a10.891,10.891,0,0,0,9.635,5.835h35.939c.259,0,.511-.021.764-.038l-8.191-15.7Z" transform="translate(52.332 7.296)" fill="#1b1a15"/>
        <path id="패스_190" data-name="패스 190" d="M224.6,68.274,214.14,78.739v28.912l9.109,17.458a10.9,10.9,0,0,0,6.942-10.136V73.861Z" transform="translate(65.4 -6.237)" fill="#1b1a15"/>
        <path id="패스_205" data-name="패스 205" d="M156.539,78.739,146.075,68.274l-5.587,5.587v41.112a10.91,10.91,0,0,0,.2,2.041l15.853-8.631Z" transform="translate(-73.296 -6.237)" fill="#1b1a15"/>
        <path id="패스_207" data-name="패스 207" d="M224.6,68.274,214.14,78.739v28.912l9.109,17.458a10.9,10.9,0,0,0,6.942-10.136V73.861Z" transform="translate(-1.792 -6.237)" fill="#1b1a15"/>
        <path id="패스_208" data-name="패스 208" d="M156.539,78.739,146.075,68.274l-5.587,5.587v41.112a10.91,10.91,0,0,0,.2,2.041l15.853-8.631Z" transform="translate(97.39 -6.237)" fill="#1b1a15"/>
      </g>
      <path id="패스_200" data-name="패스 200" d="M216.745,174.784l10.465,10.464,5.586-5.586V138.549a10.9,10.9,0,0,0-6.491-9.952l-9.56,18.323Z" transform="translate(199.326 1072.118)" fill="#1b1a15"/>
      <path id="패스_201" data-name="패스 201" d="M206.828,177.146l-10.465-10.463-5.586,5.586v41.113a10.839,10.839,0,0,0,.2,2.041l15.852-8.633Z" transform="translate(183.632 1095.135)" fill="#1b1a15"/>
      <path id="패스_202" data-name="패스 202" d="M209.747,192.766l-18.19,9.905a10.893,10.893,0,0,0,9.636,5.833h35.939c.258,0,.512-.021.765-.039l-8.192-15.7Z" transform="translate(184.104 1110.898)" fill="#1b1a15"/>
      <path id="패스_203" data-name="패스 203" d="M227.21,166.683l-10.465,10.463V206.06l9.109,17.457a10.894,10.894,0,0,0,6.942-10.135V172.269Z" transform="translate(199.326 1095.135)" fill="#1b1a15"/>
      <path id="패스_204" data-name="패스 204" d="M196.363,181.9l10.465-10.464V142.845l-16-8.712c-.035.353-.055.709-.055,1.07v41.113Z" transform="translate(183.632 1075.464)" fill="#1b1a15"/>
      <path id="패스_206" data-name="패스 206" d="M196.469,181.9l10.663-10.464V142.845l-16.3-8.712a10.541,10.541,0,0,0-.056,1.07v41.113Z" transform="translate(354.329 1075.464)" fill="#1b1a15"/>
      <path id="패스_209" data-name="패스 209" d="M196.469,181.9l10.663-10.464V142.845l-16.3-8.712a10.541,10.541,0,0,0-.056,1.07v41.113Z" transform="translate(421.329 1075.464)" fill="#1b1a15"/>
    </g>
  </g>
  <text id="집중일기" transform="translate(201.649 438.287)" fill="#1b1a15" font-size="33" font-family="NanumBarunGothicBold, NanumBarunGothic" letter-spacing="0.05em"><tspan x="0" y="0">집중일기</tspan></text>
</svg>
