<svg xmlns="http://www.w3.org/2000/svg" xmlns:xlink="http://www.w3.org/1999/xlink" width="454.3" height="561.346" viewBox="0 0 454.3 561.346">
  <defs>
    <clipPath id="clip-path">
      <path id="패스_211" data-name="패스 211" d="M1240.053,760.375l-61.028-3.738-20.148-57.1-7.525,55.4-3.35-.2-98.7,15.829-39.569-3.3-13.837-64.622-11.361,62.534L926.925,760.4s2.234-9.54,11.069-46C946.831,677.911,962,659.85,962,659.85s14.322-20.972,38.307-34.543c14.541-8.18,27.5-12.5,41.34-14.663,13.206-2.062,27.19-2.134,44.011-1.7,13.789.342,27.553.22,41.294,2.719,20.537,3.714,40.976,13.28,61.32,38.938C1222.212,693.449,1240.053,760.375,1240.053,760.375Z" transform="translate(-926.925 -608.729)" fill="none"/>
    </clipPath>
  </defs>
  <g id="그룹_52" data-name="그룹 52" transform="translate(0)">
    <path id="패스_192" data-name="패스 192" d="M3618.463,1474.327l-13.9-13.9,12.624-12.624-12.624-12.624,12.623-12.624-12.623-12.624,13.9-13.9,2.551,2.55-11.348,11.349,12.624,12.624-12.624,12.624,12.623,12.624-12.623,12.624,11.348,11.349Z" transform="translate(-3604.564 -1396.036)" fill="#ff8d8d"/>
    <path id="패스_193" data-name="패스 193" d="M3704.963,1631.557l-13.9-13.9,12.624-12.624-12.624-12.624,12.624-12.624-12.624-12.624,13.9-13.9,2.551,2.55-11.349,11.348,12.624,12.624-12.624,12.624,12.624,12.624-12.624,12.624,11.349,11.348Z" transform="translate(-3675.466 -1524.912)" fill="#81c9be"/>
  </g>
  <g id="그룹_41" data-name="그룹 41" transform="translate(-862.413 -270.209)">
    <g id="그룹_40" data-name="그룹 40" transform="translate(926.901 574.853)">
      <path id="패스_210" data-name="패스 210" d="M1240.053,760.375l-61.028-3.738-20.148-57.1-7.525,55.4-3.35-.2-98.7,15.829-39.569-3.3-13.837-64.622-11.361,62.534L926.925,760.4s2.234-9.54,11.069-46C946.831,677.911,962,659.85,962,659.85s14.322-20.972,38.307-34.543c14.541-8.18,27.5-12.5,41.34-14.663,13.206-2.062,27.19-2.134,44.011-1.7,13.789.342,27.553.22,41.294,2.719,20.537,3.714,40.976,13.28,61.32,38.938C1222.212,693.449,1240.053,760.375,1240.053,760.375Z" transform="translate(-926.873 -535.031)" fill="#81c9be"/>
      <g id="그룹_37" data-name="그룹 37" transform="translate(0.052 73.699)">
        <g id="그룹_36" data-name="그룹 36" clip-path="url(#clip-path)">
          <g id="그룹_35" data-name="그룹 35" transform="translate(0 -69.584)">
            <line id="선_42" data-name="선 42" y2="228.189" transform="translate(54.215)" fill="none" stroke="#9ad4cb" stroke-miterlimit="10" stroke-width="1"/>
            <line id="선_43" data-name="선 43" y2="228.189" transform="translate(78.491)" fill="none" stroke="#9ad4cb" stroke-miterlimit="10" stroke-width="1"/>
            <line id="선_44" data-name="선 44" y2="228.189" transform="translate(102.766)" fill="none" stroke="#9ad4cb" stroke-miterlimit="10" stroke-width="1"/>
            <line id="선_45" data-name="선 45" y2="228.189" transform="translate(127.042)" fill="none" stroke="#9ad4cb" stroke-miterlimit="10" stroke-width="1"/>
            <line id="선_46" data-name="선 46" y2="228.189" transform="translate(151.317)" fill="none" stroke="#9ad4cb" stroke-miterlimit="10" stroke-width="1"/>
            <line id="선_47" data-name="선 47" y2="228.189" transform="translate(175.593)" fill="none" stroke="#9ad4cb" stroke-miterlimit="10" stroke-width="1"/>
            <line id="선_48" data-name="선 48" y2="228.189" transform="translate(199.868)" fill="none" stroke="#9ad4cb" stroke-miterlimit="10" stroke-width="1"/>
            <line id="선_49" data-name="선 49" y2="228.189" transform="translate(224.144)" fill="none" stroke="#9ad4cb" stroke-miterlimit="10" stroke-width="1"/>
            <line id="선_50" data-name="선 50" y2="228.189" transform="translate(248.419)" fill="none" stroke="#9ad4cb" stroke-miterlimit="10" stroke-width="1"/>
            <line id="선_51" data-name="선 51" y2="228.189" transform="translate(272.694)" fill="none" stroke="#9ad4cb" stroke-miterlimit="10" stroke-width="1"/>
            <line id="선_52" data-name="선 52" y2="228.189" transform="translate(296.97)" fill="none" stroke="#9ad4cb" stroke-miterlimit="10" stroke-width="1"/>
            <line id="선_53" data-name="선 53" y2="228.189" transform="translate(321.246)" fill="none" stroke="#9ad4cb" stroke-miterlimit="10" stroke-width="1"/>
            <line id="선_54" data-name="선 54" y2="228.189" transform="translate(345.521)" fill="none" stroke="#9ad4cb" stroke-miterlimit="10" stroke-width="1"/>
            <line id="선_55" data-name="선 55" x2="394.881" transform="translate(0 67.162)" fill="none" stroke="#9ad4cb" stroke-miterlimit="10" stroke-width="1"/>
            <line id="선_56" data-name="선 56" x2="394.881" transform="translate(0 90.628)" fill="none" stroke="#9ad4cb" stroke-miterlimit="10" stroke-width="1"/>
            <line id="선_57" data-name="선 57" x2="394.881" transform="translate(0 114.095)" fill="none" stroke="#9ad4cb" stroke-miterlimit="10" stroke-width="1"/>
            <line id="선_58" data-name="선 58" x2="394.881" transform="translate(0 137.561)" fill="none" stroke="#9ad4cb" stroke-miterlimit="10" stroke-width="1"/>
            <line id="선_59" data-name="선 59" x2="394.881" transform="translate(0 161.027)" fill="none" stroke="#9ad4cb" stroke-miterlimit="10" stroke-width="1"/>
            <line id="선_60" data-name="선 60" x2="394.881" transform="translate(0 184.493)" fill="none" stroke="#9ad4cb" stroke-miterlimit="10" stroke-width="1"/>
            <line id="선_61" data-name="선 61" x2="394.881" transform="translate(0 207.96)" fill="none" stroke="#9ad4cb" stroke-miterlimit="10" stroke-width="1"/>
            <line id="선_62" data-name="선 62" x2="394.881" transform="translate(0 231.426)" fill="none" stroke="#9ad4cb" stroke-miterlimit="10" stroke-width="1"/>
          </g>
        </g>
      </g>
      <path id="패스_212" data-name="패스 212" d="M951.051,705.4s10.886-44.409,16.469-58.724l-4.773,69.5Z" transform="translate(-898.511 -490.422)" fill="#72b7ac"/>
      <path id="패스_213" data-name="패스 213" d="M972.1,662.249s9.05,1.431,9.982,5.617a21.344,21.344,0,0,1,0,8.3Z" transform="translate(-873.766 -472.116)" fill="#efa2a0"/>
      <path id="패스_214" data-name="패스 214" d="M1018.675,712.192l2.277,11.118-10.572-4.127-59.329-70.4,8.295-6.991Z" transform="translate(-898.512 -496.159)" fill="#29283d"/>
      <path id="패스_215" data-name="패스 215" d="M986.6,680.2l-14.885-7.442s-28.843-6.048-40.472,12.094,2.791,26.981,11.628,29.772S986.6,718.81,986.6,718.81s38.766,2.791,36.595-13.491c0,0,7.6.62,7.443-6.514l-.62-3.416s2.791-5.733,1.706-9.455l-1.086-3.72a7.74,7.74,0,0,0-.309-7.445c-2.325-3.875-8.994-14.108-11.63-14.108s-27.29.464-28.067,4.96S986.6,680.2,986.6,680.2Z" transform="translate(-926.901 -473.981)" fill="#efa2a0"/>
      <line id="선_63" data-name="선 63" x1="3.877" y2="18.142" transform="translate(55.827 206.218)" fill="none" stroke="#e27171" stroke-linecap="round" stroke-linejoin="round" stroke-width="1"/>
      <path id="패스_216" data-name="패스 216" d="M989.667,675.094s-10.079-8.374-12.248-8.374H961.757" transform="translate(-885.926 -466.86)" fill="none" stroke="#e27171" stroke-linecap="round" stroke-linejoin="round" stroke-width="1"/>
      <path id="패스_217" data-name="패스 217" d="M989.047,680.1s-9.148-5.424-11.94-6.12-15.35,0-15.35,0" transform="translate(-885.926 -458.69)" fill="none" stroke="#e27171" stroke-linecap="round" stroke-linejoin="round" stroke-width="1"/>
      <path id="패스_218" data-name="패스 218" d="M1053.7,694.836s-16.4-53.888-19.658-50.168,8.558,53.072,8.558,53.072Z" transform="translate(-801.617 -493)" fill="#72b7ac"/>
      <path id="패스_219" data-name="패스 219" d="M982.224,683.452a25.686,25.686,0,0,0-8.217-3.1c-4.5-.775-12.25-1.086-12.25-1.086" transform="translate(-885.926 -452.114)" fill="none" stroke="#e27171" stroke-linecap="round" stroke-linejoin="round" stroke-width="1"/>
      <path id="패스_220" data-name="패스 220" d="M1116.747,668.154l-83.269,27.268s-35.923,3.257-47.268,13.491-26.191,19.073-10.395,18.61,33.473.017,33.473.017,20.47,2.023,39.543-6.065c0,0,84.2,11.063,122.81-5.4s10.234-49.492-12.56-52.283A100.986,100.986,0,0,0,1116.747,668.154Z" transform="translate(-877.481 -471.063)" fill="#efa2a0"/>
      <g id="그룹_39" data-name="그룹 39" transform="translate(97.536)">
        <path id="패스_221" data-name="패스 221" d="M1064.964,611.663a44,44,0,0,1-85.305-1.02c13.205-2.062,27.19-2.134,44.011-1.7C1037.459,609.286,1051.224,609.164,1064.964,611.663Z" transform="translate(-962.418 -535.031)" fill="#72b7ac"/>
        <path id="패스_222" data-name="패스 222" d="M975.9,622.7s-.481-58.568,53.534-44.642c0,0,4.018-5.156,16.277-2.4s27.018,14.361,28.6,49.035l-99.3,12.4Z" transform="translate(-967.881 -574.853)" fill="#231b3e"/>
        <circle id="타원_14" data-name="타원 14" cx="43.993" cy="43.993" r="43.993" transform="translate(16.028 15.098)" fill="#efa2a0"/>
        <path id="패스_223" data-name="패스 223" d="M1005.272,584.162s-1.766,22.349,9.042,25.9,18.975,14.491,18.975,14.491l3.661-11.448-27.71-33.534Z" transform="translate(-932.434 -569.306)" fill="#231b3e"/>
        <circle id="타원_15" data-name="타원 15" cx="14.436" cy="14.436" r="14.436" transform="translate(87.913 47.381)" fill="#efa2a0"/>
        <path id="패스_224" data-name="패스 224" d="M1001.45,611.3a14.858,14.858,0,1,1-14.859-14.857A14.857,14.857,0,0,1,1001.45,611.3Z" transform="translate(-971.734 -549.478)" fill="#efa2a0"/>
        <path id="패스_225" data-name="패스 225" d="M976.294,600.925s-2.173,8.493,5.282,10.192" transform="translate(-966.719 -544.205)" fill="none" stroke="#231b3e" stroke-linecap="round" stroke-linejoin="round" stroke-width="1"/>
        <path id="패스_226" data-name="패스 226" d="M1024.909,600.991s2.11,8.254-5.134,9.9" transform="translate(-915.259 -544.127)" fill="none" stroke="#231b3e" stroke-linecap="round" stroke-linejoin="round" stroke-width="1"/>
        <path id="패스_227" data-name="패스 227" d="M999.087,607.83h0s-1.762,6.394,2,8.017" transform="translate(-940.064 -536.088)" fill="none" stroke="#231b3e" stroke-linecap="round" stroke-linejoin="round" stroke-width="1"/>
        <path id="패스_228" data-name="패스 228" d="M1008.937,606.888a2,2,0,1,1-2-2A2,2,0,0,1,1008.937,606.888Z" transform="translate(-932.706 -539.549)" fill="#231b3e" stroke="#231b3e" stroke-miterlimit="10" stroke-width="1"/>
        <path id="패스_229" data-name="패스 229" d="M995.437,606.888a2,2,0,1,1-2-2A2,2,0,0,1,995.437,606.888Z" transform="translate(-948.578 -539.549)" fill="#231b3e" stroke="#231b3e" stroke-miterlimit="10" stroke-width="1"/>
        <path id="패스_230" data-name="패스 230" d="M977.991,615.022s.1,11.213,13.606,5.83,10.356-19.523,24.608-16.454,28.565-11.032,28.565-11.032l-3.585-13.8h-29.029L982.7,594.215Z" transform="translate(-964.379 -569.306)" fill="#231b3e"/>
        <g id="그룹_38" data-name="그룹 38" transform="translate(19.019 39.729)">
          <path id="패스_231" data-name="패스 231" d="M1008.92,610.188c0,6.385-3.274,11.833-11.561,11.833A11.8,11.8,0,0,1,985.8,610.188c0-6.383,5.176-8.008,11.561-8.008S1008.92,603.805,1008.92,610.188Z" transform="translate(-974.22 -582.459)" fill="none" stroke="#231b3e" stroke-linecap="round" stroke-linejoin="round" stroke-width="0.75"/>
          <path id="패스_232" data-name="패스 232" d="M1001.034,610.188c0,6.385,3.274,11.833,11.561,11.833a11.8,11.8,0,0,0,11.561-11.833c0-6.383-5.176-8.008-11.561-8.008S1001.034,603.805,1001.034,610.188Z" transform="translate(-956.309 -582.459)" fill="none" stroke="#231b3e" stroke-linecap="round" stroke-linejoin="round" stroke-width="0.75"/>
          <path id="패스_233" data-name="패스 233" d="M995.556,603.973s5.241-2.2,13.782.033" transform="translate(-962.749 -581.491)" fill="none" stroke="#231b3e" stroke-linecap="round" stroke-linejoin="round" stroke-width="0.75"/>
          <path id="패스_234" data-name="패스 234" d="M1010.837,615.706s4.936.881,5.8-2.87,7.3-19.721,7.3-19.721" transform="translate(-944.785 -593.115)" fill="none" stroke="#231b3e" stroke-linecap="round" stroke-linejoin="round" stroke-width="0.75"/>
          <path id="패스_235" data-name="패스 235" d="M993.581,615.706s-4.936.881-5.8-2.87-7.3-19.721-7.3-19.721" transform="translate(-980.476 -593.115)" fill="none" stroke="#231b3e" stroke-linecap="round" stroke-linejoin="round" stroke-width="0.75"/>
        </g>
      </g>
    </g>
    <path id="패스_237" data-name="패스 237" d="M996.413,613.584c-2.915-.569-5.68,10.443-.393,9.747S999.328,614.153,996.413,613.584Z" transform="translate(88.619 47.68)" fill="#e27171" stroke="#e27171" stroke-width="1"/>
  </g>
  <path id="패스_238" data-name="패스 238" d="M1038.5,548.583H793.589c-38.759,0-74.667,31.418-80.207,70.171L702.1,697.684c-5.543,38.757,21.384,70.177,60.143,70.177H984.107l-6.068,44.769,44.63-46.455c32.4-6.981,59.9-34.98,64.688-68.49l11.284-78.929C1104.181,580,1077.258,548.583,1038.5,548.583Z" transform="translate(-679.281 -507.427)" fill="#feeaea"/>
  <g id="그룹_42" data-name="그룹 42" transform="translate(431.992 106.145)">
    <rect id="사각형_12" data-name="사각형 12" width="3.635" height="22.307" transform="translate(9.337)" fill="#4d6bd6"/>
    <rect id="사각형_13" data-name="사각형 13" width="22.308" height="3.635" transform="translate(0 9.336)" fill="#4d6bd6"/>
  </g>
  <g id="그룹_43" data-name="그룹 43" transform="translate(48.359 290.081)">
    <rect id="사각형_14" data-name="사각형 14" width="3.635" height="14.277" transform="translate(5.321)" fill="#4d6bd6"/>
    <rect id="사각형_15" data-name="사각형 15" width="14.277" height="3.635" transform="translate(0 5.321)" fill="#4d6bd6"/>
  </g>
  <rect id="사각형_16" data-name="사각형 16" width="3.635" height="19.892" transform="translate(431.992 223.317) rotate(-76.216)" fill="#4564d6"/>
  <rect id="사각형_17" data-name="사각형 17" width="3.635" height="43.623" transform="matrix(0.666, -0.746, 0.746, 0.666, 410.413, 239.681)" fill="#ff8d8d"/>
  <path id="패스_239" data-name="패스 239" d="M921.459,689.175a8.766,8.766,0,1,1,8.606-10.436h0a8.772,8.772,0,0,1-8.607,10.436Zm.013-13.9a5.213,5.213,0,0,0-.987.1,5.091,5.091,0,1,0,.987-.1Z" transform="translate(-519.398 -406.835)" fill="#81c9be"/>
  <path id="패스_240" data-name="패스 240" d="M894.987,693.7a5.291,5.291,0,1,1,4.553-7.969v0a5.293,5.293,0,0,1-4.553,7.968Zm-.013-6.946a1.653,1.653,0,1,0,1.43.816A1.643,1.643,0,0,0,894.974,686.751Z" transform="translate(-538.205 -397.455)" fill="#ff8d8d"/>
  <path id="패스_241" data-name="패스 241" d="M891.231,665.525" transform="translate(-524.085 -411.834)" fill="#e5afac" stroke="#272626" stroke-linejoin="round" stroke-width="2"/>
  <text id="오늘의_목표를_정해주세요_" data-name="오늘의 목표를 정해주세요! " transform="translate(68.088 189.679)" fill="#72b7ac" font-size="28" font-family="NanumBarunGothicBold, NanumBarunGothic"><tspan x="0" y="0">오늘의 목표</tspan><tspan y="0" fill="#343434" font-family="NanumBarunGothic">를 정해주세요! </tspan></text>
  <text id="아직_설정한_목표가_없네요." data-name="아직 설정한 목표가 없네요." transform="translate(70.088 130.645)" fill="#343434" font-size="28" font-family="NanumBarunGothic"><tspan x="0" y="0">아직 설정한 목표가 없네요.</tspan></text>
</svg>
